<svg xmlns="http://www.w3.org/2000/svg" xmlns:xlink="http://www.w3.org/1999/xlink" version="1.1" x="0px" y="0px" width="100px" height="100px" viewBox="0 0 100 100" enable-background="new 0 0 100 100" xml:space="preserve">
<g id="Captions">
</g>
<g id="Your_Icon">
	<path fill-rule="evenodd" clip-rule="evenodd" d="M17.305,27.079L27.079,5.27c0.905-2.274,5.226-6.363,11.129-4.998l22.943,5.223   l22.721,5.226c5.904,1.59,7.949,7.044,7.949,9.542l-0.912,23.855c2.725,1.134,5.227,4.77,4.313,7.949l-4.313,18.857   c-0.455,2.724-3.636,4.542-4.991,4.991l-3.186,13.86c-2.274,1.361-4.313,2.273-6.815,1.596c-2.496-0.456-4.998-2.502-6.132-4.548   l3.18-13.403l-12.041-1.818l-14.31-3.18l-14.31-3.407l-11.586-3.637l-3.186,13.404c-1.817,1.367-4.77,2.045-7.266,1.367   c-2.502-0.456-4.092-2.273-5.682-4.319l3.18-13.859c-0.912-1.134-2.724-4.092-2.268-6.816l4.535-18.857   C10.724,29.119,14.354,27.079,17.305,27.079 M25.254,19.807l2.73-6.588c3.18-6.815,10.901-6.134,18.852-4.316l12.726,2.955   l12.947,2.952c7.728,1.818,14.999,4.545,14.999,12.042l-0.456,7.037c-0.234,4.32-2.958,5.226-7.271,4.092l-24.539-6.815   l-25.217-4.77C25.488,25.483,23.665,23.671,25.254,19.807"/>
	<polygon fill-rule="evenodd" clip-rule="evenodd" points="44.568,76.372 4.586,76.372 4.586,100 94.768,100 94.768,91.595    44.568,91.595  "/>
</g>
</svg>