<svg xmlns="http://www.w3.org/2000/svg" xmlns:xlink="http://www.w3.org/1999/xlink" version="1.1" id="Calque_1" x="0px" y="0px" width="100px" height="100px" viewBox="0 0 100 100" enable-background="new 0 0 100 100" xml:space="preserve">
<g id="Captions">
</g>
<path fill="#000000" d="M61.638,63.312c-0.923,0.769-1.047,2.14-0.278,3.062c4.051,4.862,6.17,9.726,5.916,13.403  c-0.037,0.076-0.075,0.149-0.115,0.222c-0.275,0.489-0.651,0.892-1.1,1.24c-0.226,0.173-0.472,0.33-0.738,0.471  c-0.065,0.035-0.134,0.069-0.202,0.103l-0.013,0.006c-0.007,0.004,0.019-0.01-0.001-0.001l-0.032,0.017l-0.063,0.03l-0.033,0.017  l-0.023,0.01l-0.046,0.021c-0.13,0.055-0.276,0.114-0.416,0.164c-0.567,0.203-1.158,0.332-1.773,0.378  c-1.228,0.088-2.536-0.107-3.849-0.498c-1.313-0.393-2.631-0.946-3.951-1.584c-0.661-0.319-1.326-0.655-2.008-1.006l-1.044-0.527  c-0.359-0.177-0.727-0.356-1.136-0.534c-0.102-0.045-0.207-0.089-0.316-0.133l-0.168-0.064l-0.16-0.06l-0.301-0.104l-0.301-0.103  c-0.403-0.133-0.809-0.253-1.218-0.362c-0.818-0.214-1.646-0.382-2.48-0.502c-1.669-0.232-3.36-0.29-5.065-0.108  c-0.854,0.094-1.71,0.24-2.586,0.49c-0.438,0.127-0.883,0.274-1.34,0.487c-0.229,0.106-0.461,0.226-0.701,0.372  c-0.24,0.147-0.487,0.317-0.745,0.55c-0.254,0.234-0.531,0.529-0.762,0.982c-0.114,0.225-0.21,0.493-0.258,0.788  c-0.023,0.147-0.035,0.3-0.033,0.45l0.004,0.114c0,0.012,0.01,0.14,0.007,0.092l0.001,0.019l0.013,0.104l0.013,0.084  c0.005,0.029,0.011,0.055,0.014,0.072c0.069,0.33,0.207,0.631,0.36,0.862c0.154,0.234,0.32,0.409,0.477,0.551  c0.315,0.28,0.597,0.439,0.858,0.569c0.521,0.25,0.971,0.379,1.411,0.491c0.437,0.109,0.856,0.186,1.269,0.251  c0.824,0.132,1.625,0.197,2.42,0.249c0.794,0.049,1.58,0.082,2.364,0.089c0.784,0.008,1.563,0.012,2.341-0.004  c0.778-0.018,1.554-0.04,2.329-0.072c1.549-0.071,3.095-0.169,4.638-0.305c0.187-0.017,0.374-0.035,0.562-0.053  c1.415,0.632,2.902,1.211,4.5,1.597c0.829,0.198,1.688,0.349,2.572,0.418c0.093,0.008,0.188,0.014,0.282,0.019  c-2.798,0.581-5.347,0.216-8.476-0.233c-1.621-0.233-3.459-0.499-5.506-0.649c-2.852-0.208-4.352-0.062-6.251,0.122  c-1.597,0.155-3.585,0.35-7.17,0.392c-0.029,0-0.058,0.001-0.086,0.001c-3.343,0-5.837-2.304-7.031-3.684  c-2.593-2.999-3.627-6.617-3.307-8.642c0.733-4.645,7.27-16.091,9.748-19.862c2.343-3.566,18.824-32.243,20.421-37.518  c1.523-5.036,1.13-9.745,1.113-9.943c-0.106-1.194-1.159-2.076-2.354-1.973s-2.08,1.156-1.979,2.352  c0.003,0.041,0.329,4.102-0.943,8.306c-1.335,4.413-17.495,32.738-19.893,36.389c-1.517,2.31-9.425,15.346-10.408,21.571  c-0.574,3.63,1.16,8.519,4.313,12.165c2.932,3.389,6.651,5.231,10.458,5.186c3.771-0.044,5.861-0.248,7.541-0.411  c1.825-0.178,3.03-0.295,5.511-0.113c1.896,0.14,3.579,0.381,5.206,0.615c2.038,0.293,4.016,0.578,6.067,0.578  c1.715,0,3.481-0.199,5.378-0.757c5.289-1.556,7.306-4.865,8.066-7.367c1.603-5.276-0.748-12.226-6.449-19.066  C63.931,62.668,62.56,62.543,61.638,63.312z"/>
</svg>