<svg xmlns="http://www.w3.org/2000/svg" xmlns:xlink="http://www.w3.org/1999/xlink" version="1.1" x="0px" y="0px" width="100px" height="100px" viewBox="0 0 100 100" enable-background="new 0 0 100 100" xml:space="preserve">
<g id="Layer_2">
</g>
<g id="Layer_1">
	<g>
		<path d="M55.072,2.212c-2.947-2.948-7.731-2.948-10.681,0L2.21,44.396c-2.947,2.948-2.947,7.729,0.002,10.678L44.927,97.79    c2.949,2.947,7.729,2.947,10.679,0l42.184-42.182c2.949-2.949,2.949-7.732,0-10.68L55.072,2.212z M93.547,51.366L51.363,93.547    c-0.376,0.375-0.804,0.454-1.099,0.454c-0.293,0-0.721-0.079-1.096-0.454L6.454,50.831c-0.377-0.377-0.455-0.805-0.455-1.098    s0.078-0.721,0.453-1.095L48.634,6.455C49.011,6.079,49.438,6,49.731,6s0.721,0.079,1.096,0.453l42.72,42.719    C93.922,49.547,94,49.975,94,50.268C94,50.562,93.922,50.99,93.547,51.366z"/>
		<path d="M64.411,28.304c-0.01-0.009-0.014-0.021-0.023-0.029c-0.004-0.004-0.006-0.004-0.009-0.008    c-0.003-0.002-0.004-0.004-0.007-0.006c-0.01-0.01-0.023-0.012-0.033-0.02c-0.07-0.055-0.146-0.096-0.225-0.127    c-0.288-0.13-0.613-0.126-0.89,0.021l-16.771,5.4c-0.174,0.055-0.334,0.155-0.461,0.303c-0.371,0.426-0.326,1.07,0.1,1.439    c0.135,0.118,0.294,0.178,0.458,0.213l0.001,0.012l5.502,2.074l-6.722,7.894c-1.105,0.98-4.374,4.488-4.374,11.654V72h6V57.125    c0-5.122,2.272-7.097,2.311-7.133l0.261-0.197l7.144-8.388l3.015,5.52h0.012c0.058,0.156,0.139,0.306,0.274,0.424    c0.425,0.369,1.07,0.324,1.439-0.102c0.129-0.146,0.206-0.32,0.236-0.498l3.02-17.358c0.109-0.294,0.067-0.616-0.102-0.885    C64.526,28.435,64.474,28.366,64.411,28.304z"/>
	</g>
</g>
</svg>